<svg width="8" height="12" viewBox="0 0 8 12" fill="none" xmlns="http://www.w3.org/2000/svg">
<path d="M6.89056 11.8554L7.99714 7.14254C8.0227 6.98634 7.87296 6.81279 7.71227 6.81279H5.22886C5.06817 6.81279 4.9166 6.63924 4.94399 6.48112L6.31716 0.333603C6.34273 0.177408 6.19298 0.00193021 6.03229 0.00193021L1.58235 0C1.49288 0 1.42345 0.0578499 1.40885 0.144625L0.00286459 6.48691C-0.0226997 6.6431 0.126955 6.81858 0.287645 6.81858H2.77105C2.93174 6.81858 3.08148 6.99213 3.05592 7.14832L1.98037 11.6683C1.9548 11.8245 2.10455 11.9981 2.26524 11.9981L6.71705 12C6.80835 12 6.87595 11.9441 6.89056 11.8554Z" fill="#FF7F29"/>
</svg>
