<svg width="16" height="16" viewBox="0 0 16 16" fill="none" xmlns="http://www.w3.org/2000/svg">
<path d="M7.25 1.1275C8.88563 1.1275 10.4244 1.76472 11.5801 2.92242C12.7359 4.08036 13.375 5.615 13.375 7.2525C13.375 8.62073 12.9298 9.92064 12.1074 10.9839L12.04 11.0718L12.1182 11.149L14.6816 13.7125C14.7109 13.7417 14.7108 13.7896 14.6816 13.8189L13.8145 14.6851C13.7852 14.7144 13.7373 14.7144 13.708 14.6851L11.1445 12.1226L11.0674 12.0445L10.9795 12.1119C9.91609 12.9323 8.61821 13.3775 7.25 13.3775C5.61231 13.3775 4.0756 12.7403 2.91992 11.5826C1.76415 10.4268 1.125 8.88804 1.125 7.2525C1.125 5.61481 1.7622 4.07811 2.91992 2.92242C4.07569 1.76666 5.61446 1.1275 7.25 1.1275ZM7.25 2.46051C5.97095 2.46051 4.76801 2.95928 3.86133 3.86383C2.95662 4.76854 2.45801 5.97354 2.45801 7.2525C2.45801 8.53155 2.95678 9.73449 3.86133 10.6412C4.76801 11.5457 5.97095 12.0445 7.25 12.0445C8.52905 12.0445 9.73199 11.5457 10.6387 10.6412C11.5434 9.73647 12.042 8.53146 12.042 7.2525C12.042 5.97345 11.5432 4.77052 10.6387 3.86383C9.73384 2.95692 8.52879 2.46051 7.25 2.46051Z" fill="white" stroke="#1A1A1A" stroke-width="0.25"/>
</svg>
