<svg width="20" height="20" viewBox="0 0 20 20" fill="none" xmlns="http://www.w3.org/2000/svg">
<path d="M17.0895 4.45593C20.1513 8.37078 19.4601 14.0266 15.5455 17.0887C12.1139 19.7727 7.34568 19.5727 4.15784 16.8475L5.3092 15.5009C7.86889 17.6891 11.6992 17.8477 14.4537 15.6932C17.5976 13.234 18.1528 8.69184 15.694 5.54773L17.0895 4.45593ZM4.45471 2.91101C7.89185 0.222658 12.6691 0.42813 15.8571 3.16589L14.7028 4.50964C12.1431 2.31143 8.30547 2.14874 5.54651 4.30652C2.40241 6.76579 1.84705 11.3088 4.30627 14.453L2.91077 15.5448C-0.151334 11.6298 0.539828 5.97316 4.45471 2.91101ZM8.05627 13.1649H6.28479L6.79162 7.95691H8.56311L8.05627 13.1649ZM10.8854 13.1639H9.11389L9.5094 9.47449H11.2809L10.8854 13.1639ZM13.7145 13.1639H11.943L12.4489 7.00671H14.2203L13.7145 13.1639Z" fill="white"/>
</svg>
