<svg width="20" height="20" viewBox="0 0 20 20" fill="none" xmlns="http://www.w3.org/2000/svg">
<path d="M10.8828 3.93666C10.8828 6.16377 12.6882 7.96921 14.9154 7.96921H18.4483V9.73344H14.9154C12.6882 9.73344 10.8828 11.5389 10.8828 13.766V15.0951C12.4291 15.0586 13.7985 14.93 14.8149 14.7436C14.8939 14.7291 14.9701 14.7142 15.0433 14.6993C14.6755 14.6247 14.2448 14.5557 13.7586 14.497L13.9697 12.7455C14.9502 12.864 15.8093 13.0295 16.4438 13.2408C16.7553 13.3444 17.0653 13.476 17.3151 13.6518C17.5355 13.807 17.9161 14.1464 17.9161 14.6993C17.916 15.1386 17.6704 15.4457 17.48 15.6164C17.2866 15.7897 17.0518 15.9155 16.8322 16.0107C16.3863 16.204 15.7955 16.3578 15.1329 16.4793C13.9952 16.6879 12.5152 16.8237 10.8828 16.8603V18.5H9.11857V16.8603C7.48579 16.8237 6.00538 16.688 4.86746 16.4793C4.2049 16.3578 3.61407 16.204 3.1682 16.0107C2.94862 15.9155 2.71382 15.7897 2.52039 15.6164C2.33 15.4457 2.08435 15.1386 2.08425 14.6993C2.08426 14.1478 2.46319 13.8087 2.68333 13.6533C2.93236 13.4775 3.24145 13.3463 3.55166 13.2427C4.18359 13.0317 5.03866 12.8661 6.0149 12.7475L6.22805 14.499C5.74701 14.5574 5.32055 14.6254 4.95607 14.6993C5.02962 14.7142 5.10611 14.7291 5.18546 14.7436C6.20214 14.9301 7.5719 15.0587 9.11857 15.0951V13.766C9.11857 11.5389 7.31313 9.73344 5.08602 9.73344H1.55164V7.96921H5.08602C7.31313 7.96921 9.11857 6.16377 9.11857 3.93666V1.5H10.8828V3.93666Z" fill="white" fill-opacity="0.8"/>
</svg>
