<svg width="20" height="20" viewBox="0 0 20 20" fill="none" xmlns="http://www.w3.org/2000/svg">
<path d="M6.56039 3.42796C11.8848 1.03536 15.7296 3.95956 16.367 4.49534L15.284 5.7844C14.8145 5.38974 11.6769 2.97429 7.25082 4.96311C4.79718 6.06577 3.54386 7.73655 3.01058 9.2219C2.74126 9.97229 2.65612 10.6738 2.69027 11.2326C2.72613 11.8192 2.88449 12.1478 2.98519 12.261C3.28649 12.5988 3.64699 12.6632 4.13363 12.6311C4.25729 12.6229 4.38044 12.6086 4.51254 12.593C4.63548 12.5784 4.78413 12.5602 4.92074 12.551C5.05338 12.5421 5.23453 12.5372 5.41976 12.5715C5.58758 12.6026 5.81353 12.6766 6.00961 12.8576L6.09164 12.9416L6.16293 13.0305C6.32878 13.2479 6.4829 13.5381 6.6014 13.761C6.76037 14.0599 6.918 14.3641 7.09652 14.6526C7.39627 15.1369 9.71769 17.0214 13.7205 14.6467C14.8082 14.0014 15.5935 12.9129 16.1229 11.8655C16.3837 11.3493 16.5733 10.862 16.7 10.4778C16.7633 10.2861 16.8106 10.1225 16.8426 9.99729C16.8586 9.93473 16.8705 9.88304 16.8787 9.84397C16.8828 9.82478 16.8855 9.80936 16.8875 9.79807C16.8893 9.78809 16.8903 9.78234 16.8905 9.78147L18.5594 10.0002C18.5121 10.3609 18.2232 11.443 17.6258 12.6252C17.0249 13.8143 16.0555 15.2195 14.5799 16.0949C9.88588 18.8797 6.50531 16.8969 5.66488 15.5393C5.44999 15.1921 5.26096 14.8272 5.1141 14.551C5.04882 14.4283 4.99289 14.3249 4.9432 14.2385C4.8791 14.2449 4.80397 14.2537 4.7098 14.2649C4.57719 14.2806 4.41633 14.2994 4.24496 14.3108C3.54997 14.3567 2.53986 14.2906 1.72933 13.3821C1.27407 12.8716 1.05788 12.1086 1.01058 11.3352C0.961627 10.5337 1.08435 9.60447 1.42562 8.65354C2.11388 6.73615 3.69125 4.71741 6.56039 3.42796ZM18.9998 6.68381L9.93832 14.0198L8.87972 12.7112L17.9403 5.37522L18.9998 6.68381ZM4.51351 10.3537C4.63843 10.3538 4.75811 10.4032 4.84652 10.4914C4.93498 10.5799 4.98519 10.7003 4.98519 10.8254C4.98513 10.9504 4.93493 11.07 4.84652 11.1584C4.75809 11.2468 4.63855 11.2971 4.51351 11.2971C4.3884 11.2971 4.26799 11.2469 4.17953 11.1584C4.09131 11.07 4.0419 10.9503 4.04183 10.8254C4.04183 10.7003 4.0911 10.5799 4.17953 10.4914C4.26799 10.403 4.3884 10.3537 4.51351 10.3537ZM5.50765 7.70237C5.70385 7.70237 5.89236 7.78044 6.03109 7.91917C6.16982 8.0579 6.24788 8.24641 6.24789 8.4426C6.24789 8.6388 6.16981 8.82731 6.03109 8.96604C5.89236 9.10477 5.70385 9.18283 5.50765 9.18284C5.31145 9.18284 5.12295 9.10478 4.98422 8.96604C4.84548 8.82731 4.76742 8.63881 4.76742 8.4426C4.76742 8.24641 4.84548 8.0579 4.98422 7.91917C5.12295 7.78044 5.31146 7.70237 5.50765 7.70237ZM12.3104 5.30491C12.6282 5.30491 12.9332 5.4309 13.158 5.65549C13.3828 5.88023 13.5095 6.18534 13.5096 6.50315C13.5096 6.82111 13.3829 7.12695 13.158 7.35178C12.9333 7.57634 12.6281 7.70237 12.3104 7.70237C11.9926 7.70228 11.6875 7.57647 11.4627 7.35178C11.2379 7.12695 11.1121 6.82111 11.1121 6.50315C11.1123 6.18534 11.238 5.88023 11.4627 5.65549C11.6875 5.43077 11.9926 5.305 12.3104 5.30491ZM8.45492 5.54905C8.70809 5.54905 8.95168 5.64933 9.1307 5.82835C9.30971 6.00736 9.41 6.25096 9.41 6.50413C9.4099 6.7571 9.30954 7.00001 9.1307 7.17893C8.95168 7.35795 8.70809 7.45823 8.45492 7.45823C8.20187 7.45814 7.95905 7.35787 7.78011 7.17893C7.60118 7 7.50091 6.75717 7.50082 6.50413C7.50082 6.25096 7.60109 6.00736 7.78011 5.82835C7.95904 5.6495 8.20194 5.54914 8.45492 5.54905Z" fill="white" fill-opacity="0.8"/>
</svg>
