<svg width="112" height="42" viewBox="0 0 112 42" fill="none" xmlns="http://www.w3.org/2000/svg">
<path d="M3.52793 3.63373C3.71722 1.57519 5.4439 0 7.51113 0H107.615C109.969 0 111.814 2.02238 111.599 4.36627L108.472 38.3663C108.283 40.4248 106.556 42 104.489 42H4.38469C2.03091 42 0.185966 39.9776 0.401496 37.6337L3.52793 3.63373Z" fill="white"/>
<path d="M3.52793 3.63373C3.71722 1.57519 5.4439 0 7.51113 0H107.615C109.969 0 111.814 2.02238 111.599 4.36627L108.472 38.3663C108.283 40.4248 106.556 42 104.489 42H4.38469C2.03091 42 0.185966 39.9776 0.401496 37.6337L3.52793 3.63373Z" fill="url(#paint0_linear_387_4960)"/>
<defs>
<linearGradient id="paint0_linear_387_4960" x1="112" y1="-8.65822e-06" x2="3.05431" y2="42" gradientUnits="userSpaceOnUse">
<stop stop-color="#FF7300" stop-opacity="0.3"/>
<stop offset="1" stop-color="#FF7300" stop-opacity="0"/>
</linearGradient>
</defs>
</svg>
