<svg width="16" height="16" viewBox="0 0 16 16" fill="none" xmlns="http://www.w3.org/2000/svg">
  <path d="M9.485 2.027C10.1589 2.02708 10.6879 2.60487 10.6287 3.27631L9.91708 11.3411C9.86472 11.9335 9.36813 12.3875 8.7734 12.3875H2.59704C1.92319 12.3875 1.39419 11.8097 1.45341 11.1383L2.16507 3.07347C2.21742 2.48116 2.71409 2.02713 3.30869 2.02705H9.485ZM2.676 11.1675H8.70661L9.40528 3.24696H3.37467L2.676 11.1675Z" fill="rgba(255,255,255,0.54)"/>
  <path d="M10.6366 0.5C11.9324 0.5 12.9547 1.60291 12.8557 2.89545L12.1813 11.694L11.5722 11.6478L10.9631 11.6008L11.6375 2.80225C11.6821 2.21995 11.2212 1.72215 10.6366 1.72215H4.42042V0.5H10.6366Z" fill="rgba(255,255,255,0.54)"/>
</svg>
