<svg width="64" height="28" viewBox="0 0 64 28" fill="none" xmlns="http://www.w3.org/2000/svg">
  <path d="M1.55891 5.82773C1.74358 3.77076 1.83591 2.74228 2.2958 1.96437C2.7008 1.2793 3.30096 0.730613 4.0195 0.388487C4.83541 0 5.86803 0 7.93327 0H56.568C58.9963 0 60.2105 0 61.1042 0.486032C61.8893 0.913022 62.5089 1.59066 62.8639 2.41084C63.2681 3.34442 63.1595 4.5537 62.9424 6.97227L61.5778 22.1723C61.3931 24.2292 61.3008 25.2577 60.8409 26.0356C60.4359 26.7207 59.8358 27.2694 59.1172 27.6115C58.3013 28 57.2687 28 55.2034 28H6.56868C4.14038 28 2.92623 28 2.03252 27.514C1.24738 27.087 0.627857 26.4093 0.272783 25.5892C-0.13139 24.6556 -0.022825 23.4463 0.194305 21.0277L1.55891 5.82773Z" fill="#FF7300"/>
</svg>
