<svg width="360" height="53" viewBox="0 0 360 53" fill="none" xmlns="http://www.w3.org/2000/svg">
<g opacity="0.06" clip-path="url(#clip0_353_3881)">
<path d="M40.788 18.9838C51.0431 18.9838 57.8651 23.9025 57.8651 33.8792H78.9776C78.9776 29.2388 77.9575 25.0626 76.2406 21.1183C70.7186 9.37833 58.4227 2.00026 41.2072 2.00026C35.546 2.00026 30.4878 2.74271 25.8475 4.18121C13.9683 7.80065 3.24863 15.7819 3.24863 30.8165C3.24863 35.3176 4.13056 39.2156 5.84748 42.5566C11.7871 53.6933 24.5019 59.076 37.5411 63.2523C41.7174 64.5516 45.057 65.7117 47.6556 66.8718C53.1775 69.3311 57.6318 71.9297 57.6318 79.3077C57.6318 87.8459 50.3931 91.0477 41.5765 91.0477C29.2797 91.0477 21.3001 86.4074 21.3001 73.9714H-0.000488281C-0.000488281 77.8693 0.556892 81.3495 1.71697 84.5513C6.91411 99.3075 21.7171 107.846 41.5312 107.846C47.1923 107.846 52.3888 107.103 57.0291 105.804C69.1867 102.324 78.8847 94.3423 78.8847 79.1685C78.8847 74.9923 78.1436 71.1872 76.7051 67.8926C71.5079 55.735 58.468 50.0738 44.7327 45.8975C38.0507 43.8558 32.9937 41.8605 29.5135 39.5403C26.0333 37.2202 24.3158 34.3432 24.3158 31.0022C24.455 22.3248 31.8322 18.9838 40.788 18.9838Z" stroke="white" stroke-width="2"/>
<path d="M155.912 45.2007H114.473V3.48434H93.2227V106.406H114.473V62.2771H155.912V106.406H177.025V3.48434H155.912V45.2007Z" stroke="white" stroke-width="2"/>
<path d="M217.112 3H196V105.922H217.112V3Z" stroke="white" stroke-width="2"/>
<path d="M278.232 2.04558C271.736 2.04558 265.797 3.34486 260.414 5.66501C244.034 12.9039 234.335 29.0986 234.335 52.7177V57.3581C234.335 73.2744 238.975 85.8959 246.631 94.2485C253.731 102.091 264.126 107.845 278.325 107.845C280.924 107.705 283.524 107.566 285.983 107.102L307.977 124.782L321.434 112.763L304.359 99.4456C315.217 90.9074 321.853 76.7081 321.853 57.3117V52.6714C321.853 36.7551 317.212 24.1334 309.695 15.5953C302.827 7.84595 292.431 2.04558 278.232 2.04558ZM300.507 57.3581C300.507 75.4553 294.846 90.4898 278.373 90.4898C274.753 90.4898 271.551 89.7474 268.813 88.3089C259.393 83.3902 255.774 71.7894 255.774 57.3117V52.5322C255.774 34.2957 261.713 19.5396 278.232 19.5396C294.891 19.5396 300.507 34.2957 300.507 52.5322V57.3581Z" stroke="white" stroke-width="2"/>
<path d="M359.999 3.48434H338.887V106.406H359.999V3.48434Z" stroke="white" stroke-width="2"/>
</g>
<defs>
<clipPath id="clip0_353_3881">
<rect width="360" height="53" fill="white"/>
</clipPath>
</defs>
</svg>
