<svg width="20" height="20" viewBox="0 0 20 20" fill="none" xmlns="http://www.w3.org/2000/svg">
<path d="M7.81797 2.00391C8.20679 1.33056 9.06803 1.10014 9.74142 1.48892L13.5898 3.71087L12.6938 5.26233L9.17793 3.23238L3.32809 13.3646C3.30832 13.3989 3.30132 13.4392 3.30859 13.4781L3.91607 16.7L7.01049 15.6156C7.04785 15.6024 7.07968 15.5763 7.09949 15.5421L12.6198 5.98031L14.1718 6.87629L8.65145 16.438C8.41736 16.8435 8.04523 17.1516 7.60347 17.3065L3.81807 18.634C3.14667 18.8694 2.42293 18.4517 2.29111 17.7525L1.54763 13.8101C1.46096 13.3501 1.54208 12.8741 1.77613 12.4686L7.81797 2.00391Z" fill="white"/>
<path d="M17.9742 18.525H9.34593L9.85792 16.733H18.4862L17.9742 18.525Z" fill="white"/>
</svg>
