<svg width="20" height="20" viewBox="0 0 20 20" fill="none" xmlns="http://www.w3.org/2000/svg">
<path d="M2.85184 15.2545L3.38149 6.06112C3.38161 4.97051 4.26838 4.08435 5.36123 4.08431L16.487 4.08437L16.4871 2.23208L5.36128 2.23203C3.2477 2.23203 1.52934 3.9453 1.5292 6.06107L1 15.2547L2.85184 15.2545Z" fill="white"/>
<path d="M14.639 17.768C16.7525 17.7678 18.471 16.0546 18.4711 13.9389L19 4.74574L17.1477 4.7457L16.6188 13.9389C16.6187 15.0294 15.7318 15.9155 14.639 15.9157L3.51325 15.9156L3.5132 17.7679L14.639 17.768Z" fill="white"/>
<path d="M6.88702 12.0225C7.52722 10.9136 8.11939 9.63041 7.69934 8.51942C8.87159 8.32775 9.95162 7.63131 10.5919 6.52238L8.9878 5.59628C8.36672 6.67201 6.99118 7.04059 5.91545 6.41951L4.98908 8.02402C6.06482 8.6451 5.90403 10.0206 5.28296 11.0964L6.88702 12.0225Z" fill="white"/>
<path d="M11.0125 14.4037C11.6142 13.3615 12.9237 12.9831 13.983 13.5253L14.0848 13.5805L15.0109 11.9764C13.9352 11.3553 14.096 9.9798 14.717 8.90406L13.113 7.97795C12.4729 9.08667 11.8796 10.3701 12.2995 11.4809C11.1277 11.6729 10.0484 12.3691 9.4084 13.4776L11.0125 14.4037Z" fill="white"/>
</svg>
