<svg width="20" height="20" viewBox="0 0 20 20" fill="none" xmlns="http://www.w3.org/2000/svg">
<path d="M18.4785 14.1427C18.4782 16.1556 16.8434 17.7858 14.8323 17.7858H3.86792V16.2212H14.8323C15.9811 16.2212 16.9136 15.2896 16.9139 14.1427L17.4354 5.0826H19L18.4785 14.1427Z" fill="white" fill-opacity="0.8"/>
<path d="M16.1321 3.77877H5.16768C4.01878 3.77877 3.08623 4.71026 3.08613 5.85726L2.5646 14.9174H1L1.52153 5.85726C1.52163 3.84428 3.15655 2.21417 5.16768 2.21417H16.1321V3.77877Z" fill="white" fill-opacity="0.8"/>
<path fill-rule="evenodd" clip-rule="evenodd" d="M9.79984 5.44217C11.9172 5.44224 13.6339 7.15886 13.6339 9.27625C13.6339 10.1949 13.31 11.0377 12.7712 11.698L14.0719 13.063L12.9392 14.1417L11.5524 12.6856C11.0269 12.9562 10.4315 13.1103 9.79984 13.1103C7.68245 13.1103 5.96583 11.3936 5.96576 9.27625C5.96576 7.15882 7.68241 5.44217 9.79984 5.44217ZM9.79984 7.00677C8.54651 7.00677 7.53036 8.02292 7.53036 9.27625C7.53043 10.5295 8.54655 11.5457 9.79984 11.5457C11.0531 11.5457 12.0693 10.5295 12.0693 9.27625C12.0693 8.02296 11.0531 7.00684 9.79984 7.00677Z" fill="white" fill-opacity="0.8"/>
</svg>
