<svg width="469" height="12" viewBox="0 0 469 12" fill="none" xmlns="http://www.w3.org/2000/svg">
<path d="M3 0H7L4 12H0L3 0Z" fill="#FF7200"/>
<path d="M10 0H14L11 12H7L10 0Z" fill="#FF7200"/>
<path d="M17 0H21L18 12H14L17 0Z" fill="#FF7200"/>
<path d="M24 0H28L25 12H21L24 0Z" fill="#FF7200"/>
<path d="M31 0H35L32 12H28L31 0Z" fill="#FF7200"/>
<path d="M38 0H42L39 12H35L38 0Z" fill="#FF7200"/>
<path d="M45 0H49L46 12H42L45 0Z" fill="#FF7200"/>
<path d="M52 0H56L53 12H49L52 0Z" fill="#FF7200"/>
<path d="M59 0H63L60 12H56L59 0Z" fill="#FF7200"/>
<path d="M66 0H70L67 12H63L66 0Z" fill="#FF7200"/>
<path d="M73 0H77L74 12H70L73 0Z" fill="#FF7200"/>
<path d="M80 0H84L81 12H77L80 0Z" fill="#FF7200"/>
<path d="M87 0H91L88 12H84L87 0Z" fill="#FF7200"/>
<path d="M94 0H98L95 12H91L94 0Z" fill="#FF7200"/>
<path d="M101 0H105L102 12H98L101 0Z" fill="#FF7200"/>
<path d="M108 0H112L109 12H105L108 0Z" fill="#FF7200"/>
<path d="M115 0H119L116 12H112L115 0Z" fill="#FF7200"/>
<path d="M122 0H126L123 12H119L122 0Z" fill="#FF7200"/>
<path d="M129 0H133L130 12H126L129 0Z" fill="#FF7200"/>
<path d="M136 0H140L137 12H133L136 0Z" fill="#FF7200"/>
<path d="M143 0H147L144 12H140L143 0Z" fill="#FF7200"/>
<path d="M150 0H154L151 12H147L150 0Z" fill="#FF7200"/>
<path d="M157 0H161L158 12H154L157 0Z" fill="#FF7200"/>
<path d="M164 0H168L165 12H161L164 0Z" fill="#FF7200"/>
<path d="M171 0H175L172 12H168L171 0Z" fill="#FF7200"/>
<path d="M178 0H182L179 12H175L178 0Z" fill="#FF7200"/>
<path d="M185 0H189L186 12H182L185 0Z" fill="#FF7200"/>
<path d="M192 0H196L193 12H189L192 0Z" fill="#FF7200"/>
<path d="M199 0H203L200 12H196L199 0Z" fill="#FF7200"/>
<path d="M206 0H210L207 12H203L206 0Z" fill="#FF7200"/>
<path d="M213 0H217L214 12H210L213 0Z" fill="#FF7200"/>
<path d="M220 0H224L221 12H217L220 0Z" fill="#FF7200"/>
<path d="M227 0H231L228 12H224L227 0Z" fill="#FF7200"/>
<path d="M234 0H238L235 12H231L234 0Z" fill="#FF7200"/>
<path d="M241 0H245L242 12H238L241 0Z" fill="#FF7200"/>
<path d="M248 0H252L249 12H245L248 0Z" fill="#FF7200"/>
<path d="M255 0H259L256 12H252L255 0Z" fill="#FF7200"/>
<path d="M262 0H266L263 12H259L262 0Z" fill="#FF7200"/>
<path d="M269 0H273L270 12H266L269 0Z" fill="#FF7200"/>
<path d="M276 0H280L277 12H273L276 0Z" fill="#FF7200"/>
<path d="M283 0H287L284 12H280L283 0Z" fill="#FF7200"/>
<path d="M290 0H294L291 12H287L290 0Z" fill="#FF7200"/>
<path d="M297 0H301L298 12H294L297 0Z" fill="#FF7200"/>
<path d="M304 0H308L305 12H301L304 0Z" fill="#FF7200"/>
<path d="M311 0H315L312 12H308L311 0Z" fill="#FF7200"/>
<path d="M318 0H322L319 12H315L318 0Z" fill="#FF7200"/>
<path d="M325 0H329L326 12H322L325 0Z" fill="#FF7200"/>
<path d="M332 0H336L333 12H329L332 0Z" fill="#FF7200"/>
<path d="M339 0H343L340 12H336L339 0Z" fill="#FF7200"/>
<path d="M346 0H350L347 12H343L346 0Z" fill="#FF7200"/>
<path d="M353 0H357L354 12H350L353 0Z" fill="#FF7200"/>
<path d="M360 0H364L361 12H357L360 0Z" fill="#FF7200"/>
<path d="M367 0H371L368 12H364L367 0Z" fill="#FF7200"/>
<path d="M374 0H378L375 12H371L374 0Z" fill="#FF7200"/>
<path d="M381 0H385L382 12H378L381 0Z" fill="#FF7200"/>
<path d="M388 0H392L389 12H385L388 0Z" fill="#FF7200"/>
<path d="M395 0H399L396 12H392L395 0Z" fill="#FF7200"/>
<path d="M402 0H406L403 12H399L402 0Z" fill="#FF7200"/>
<path d="M409 0H413L410 12H406L409 0Z" fill="#FF7200"/>
<path d="M416 0H420L417 12H413L416 0Z" fill="#FF7200"/>
<path d="M423 0H427L424 12H420L423 0Z" fill="#FF7200"/>
<path d="M430 0H434L431 12H427L430 0Z" fill="#FF7200"/>
<path d="M437 0H441L438 12H434L437 0Z" fill="#FF7200"/>
<path d="M444 0H448L445 12H441L444 0Z" fill="#FF7200"/>
<path d="M451 0H455L452 12H448L451 0Z" fill="#FF7200"/>
<path d="M458 0H462L459 12H455L458 0Z" fill="#FF7200"/>
<path d="M465 0H469L466 12H462L465 0Z" fill="#FF7200"/>
</svg>
