<svg preserveAspectRatio="none" width="100%" height="100%" overflow="visible" style="display: block;" viewBox="0 0 101.995 32" fill="none" xmlns="http://www.w3.org/2000/svg">
<path id="&#229;&#175;&#188;&#232;&#136;&#170;&#230;&#160;&#143;_API Key_miaobian" d="M8.63025 0.5H95.3871C96.6269 0.5 97.5259 0.500898 98.2279 0.560547C98.9242 0.619728 99.3775 0.733651 99.7396 0.932617C100.431 1.31299 100.975 1.91672 101.281 2.64453C101.441 3.02559 101.507 3.4885 101.493 4.1875C101.478 4.89185 101.385 5.78563 101.255 7.01855L99.2318 26.2188C99.1243 27.2388 99.0467 27.9756 98.9398 28.5537C98.8341 29.1257 98.7056 29.5037 98.5179 29.8135C98.161 30.4027 97.6383 30.8737 97.015 31.167C96.6873 31.3212 96.2972 31.4089 95.7172 31.4541C95.131 31.4998 94.3903 31.5 93.3646 31.5H6.60681C5.36725 31.5 4.46886 31.4991 3.76697 31.4395C3.07026 31.3802 2.61647 31.2665 2.25427 31.0674C1.56258 30.687 1.01999 30.0832 0.714232 29.3555C0.554183 28.9744 0.488182 28.5115 0.502318 27.8125C0.516569 27.1082 0.609703 26.2144 0.739623 24.9814L2.76306 5.78125C2.87055 4.76124 2.94818 4.02442 3.05505 3.44629C3.16081 2.87426 3.28926 2.49627 3.47693 2.18652C3.83391 1.59733 4.35652 1.12632 4.97986 0.833008C5.30759 0.678819 5.69765 0.591121 6.27771 0.545898C6.57085 0.523052 6.90266 0.511658 7.28943 0.505859L8.63025 0.5Z" stroke="var(--stroke-0, white)" stroke-opacity="0.23"/>
</svg>
