<svg width="182" height="60" viewBox="0 0 182 60" fill="none" xmlns="http://www.w3.org/2000/svg">
<path d="M18.8331 0.5H165.504C168.54 0.5 170.785 0.500284 172.552 0.649414C174.313 0.798134 175.55 1.09208 176.579 1.65039C178.441 2.66104 179.912 4.26545 180.758 6.20801C181.225 7.28115 181.411 8.53824 181.406 10.3057C181.402 12.0786 181.208 14.3162 180.945 17.3408L178.515 45.3408C178.29 47.9273 178.124 49.8383 177.872 51.3477C177.622 52.8509 177.292 53.916 176.762 54.8174C175.801 56.4497 174.375 57.7585 172.666 58.5742C171.722 59.0246 170.633 59.2604 169.113 59.3799C167.588 59.4999 165.669 59.5 163.073 59.5H16.4025C13.3668 59.5 11.1212 59.4997 9.35461 59.3506C7.59329 59.2019 6.35604 58.9079 5.32727 58.3496C3.4652 57.339 1.99428 55.7345 1.14856 53.792C0.681399 52.7188 0.495943 51.4618 0.500122 49.6943C0.50432 47.9214 0.698459 45.6838 0.96106 42.6592L3.39172 14.6592C3.61628 12.0727 3.78285 10.1617 4.0343 8.65234C4.28475 7.1491 4.61432 6.08396 5.14465 5.18262C6.10513 3.55033 7.53111 2.24147 9.24036 1.42578C10.1842 0.975415 11.2739 0.73961 12.7931 0.620117C14.3185 0.500147 16.237 0.5 18.8331 0.5Z" fill="#FF7300"/>
</svg>
