<svg width="20" height="20" viewBox="0 0 20 20" fill="none" xmlns="http://www.w3.org/2000/svg">
<path d="M18.464 11.7923C18.464 13.9341 16.728 15.6702 14.5862 15.6702H6.6987L4.00218 18.9461L2.55343 17.7543L5.81312 13.7943H14.5862C15.692 13.7943 16.5882 12.8981 16.5882 11.7923L17.1242 3.50808H19L18.464 11.7923Z" fill="#FF7300"/>
<path d="M16.6845 2.93026H5.41691C4.31008 2.93026 3.4119 3.82768 3.41179 4.93223L2.87584 14.2429H1L1.53595 4.93223C1.53606 2.78943 3.27634 1.05389 5.41691 1.05389H16.6845V2.93026Z" fill="#FF7300"/>
<path d="M11.0266 4.69095C11.1288 4.69107 11.2239 4.7968 11.2077 4.89089L10.3337 8.59755C10.3162 8.69285 10.4125 8.7974 10.5148 8.79749H12.0959C12.1982 8.79749 12.2937 8.90223 12.2775 8.99638L11.5731 11.8379C11.5649 11.8913 11.5207 11.9252 11.4626 11.9253L8.62793 11.9242C8.52564 11.9242 8.43009 11.8195 8.44631 11.7253L9.13143 9.00004C9.14771 8.90587 9.05213 8.80115 8.94981 8.80115H7.36864C7.26637 8.80114 7.17082 8.69537 7.18703 8.60122L8.08255 4.77731C8.09185 4.72501 8.13604 4.68993 8.19299 4.6899L11.0266 4.69095Z" fill="#FF7300"/>
</svg>
