<svg width="20" height="20" viewBox="0 0 20 20" fill="none" xmlns="http://www.w3.org/2000/svg">
<path d="M6.44596 3.2081C11.9479 0.735742 15.9211 3.75797 16.5798 4.31162L15.4606 5.64365C14.9755 5.23584 11.7334 2.74008 7.15983 4.79502C4.62402 5.93453 3.32901 7.66136 2.77799 9.19638C2.49971 9.97175 2.41167 10.6961 2.44694 11.2735C2.48403 11.8801 2.64758 12.2203 2.75163 12.337C3.06292 12.6858 3.43541 12.752 3.93815 12.7188C4.0659 12.7104 4.19328 12.6959 4.32975 12.6798C4.45678 12.6647 4.61051 12.6453 4.75163 12.6358C4.8886 12.6266 5.07508 12.622 5.26627 12.6573C5.43973 12.6894 5.67384 12.765 5.87663 12.9522L5.96159 13.0401L6.03581 13.131C6.20716 13.3556 6.36551 13.6556 6.48795 13.8858C6.65228 14.1948 6.81513 14.5095 6.99967 14.8077C7.30942 15.3082 9.7082 17.2555 13.8444 14.8019C14.9683 14.1351 15.7808 13.0103 16.3278 11.9278C16.5974 11.3944 16.7925 10.8904 16.9235 10.4933C16.9889 10.295 17.0378 10.1257 17.071 9.99619C17.0875 9.93167 17.0996 9.87827 17.1081 9.83798C17.1122 9.81832 17.1148 9.8027 17.1169 9.79111C17.1186 9.7814 17.1196 9.77584 17.1198 9.77451L18.8454 10.0001C18.7965 10.3728 18.4977 11.4905 17.8805 12.712C17.2596 13.9407 16.2578 15.3933 14.7331 16.2979C9.88234 19.1757 6.38852 17.1266 5.52018 15.7237C5.29823 15.3651 5.10354 14.9885 4.95182 14.7032C4.88428 14.5762 4.82549 14.4693 4.77409 14.38C4.70796 14.3866 4.63092 14.3958 4.53385 14.4073C4.39668 14.4236 4.22974 14.4425 4.05241 14.4542C3.3342 14.5016 2.29126 14.4331 1.45377 13.4942C0.983329 12.9668 0.759483 12.1792 0.71061 11.38C0.659969 10.5517 0.787594 9.59126 1.1403 8.60849C1.85158 6.62715 3.48103 4.5405 6.44596 3.2081ZM19.2995 6.57334L9.9362 14.1544L8.84245 12.8019L18.2048 5.2208L19.2995 6.57334ZM4.33073 10.3653C4.45994 10.3654 4.58409 10.4165 4.67545 10.5079C4.76681 10.5993 4.81801 10.7234 4.81803 10.8526C4.81803 10.9818 4.76678 11.106 4.67545 11.1974C4.58409 11.2887 4.45994 11.3399 4.33073 11.3399C4.20148 11.3399 4.07741 11.2887 3.986 11.1974C3.89459 11.1059 3.84342 10.9819 3.84342 10.8526C3.84344 10.7234 3.8946 10.5993 3.986 10.5079C4.0774 10.4166 4.20151 10.3653 4.33073 10.3653ZM5.35807 7.62607C5.56058 7.62611 5.75482 7.70662 5.89811 7.8497C6.04147 7.99307 6.12272 8.18797 6.12272 8.39072C6.12271 8.59342 6.04143 8.78741 5.89811 8.93076C5.75478 9.07408 5.56076 9.15533 5.35807 9.15537C5.15533 9.15537 4.96042 9.07412 4.81706 8.93076C4.67395 8.78744 4.59344 8.59326 4.59342 8.39072C4.59342 8.18797 4.67369 7.99307 4.81706 7.8497C4.96041 7.70637 5.15535 7.62607 5.35807 7.62607ZM12.3883 5.14853C12.7167 5.14866 13.0321 5.27862 13.2643 5.51084C13.4965 5.74313 13.6266 6.05837 13.6266 6.38681C13.6266 6.71525 13.4965 7.03049 13.2643 7.26279C13.0321 7.49501 12.7167 7.62595 12.3883 7.62607C12.0598 7.62607 11.7437 7.49512 11.5114 7.26279C11.2792 7.03049 11.1491 6.71524 11.1491 6.38681C11.1491 6.05838 11.2792 5.74313 11.5114 5.51084C11.7437 5.27851 12.0598 5.14853 12.3883 5.14853ZM8.40397 5.40048C8.66548 5.40053 8.91629 5.50465 9.10124 5.68955C9.28614 5.87446 9.39021 6.12532 9.3903 6.38681C9.3903 6.64843 9.28622 6.90007 9.10124 7.08505C8.91631 7.26986 8.66541 7.3731 8.40397 7.37314C8.14254 7.37314 7.89165 7.26979 7.7067 7.08505C7.52171 6.90007 7.41764 6.64843 7.41764 6.38681C7.41773 6.12532 7.52179 5.87446 7.7067 5.68955C7.89167 5.50471 8.14247 5.40048 8.40397 5.40048Z" fill="white"/>
</svg>
