<svg width="20" height="20" viewBox="0 0 20 20" fill="none" xmlns="http://www.w3.org/2000/svg">
<path d="M2.85184 15.2544L3.38149 6.06109C3.38161 4.97048 4.26838 4.08431 5.36123 4.08428L16.487 4.08434L16.4871 2.23205L5.36128 2.23199C3.2477 2.232 1.52934 3.94527 1.5292 6.06104L1 15.2547L2.85184 15.2544Z" fill="white" fill-opacity="0.8"/>
<path d="M14.639 17.7679C16.7525 17.7678 18.471 16.0546 18.4711 13.9389L19 4.74571L17.1477 4.74567L16.6188 13.9388C16.6187 15.0294 15.7318 15.9155 14.639 15.9156L3.51325 15.9156L3.5132 17.7679L14.639 17.7679Z" fill="white" fill-opacity="0.8"/>
<path d="M6.88702 12.0224C7.52722 10.9136 8.11939 9.63038 7.69934 8.51939C8.87159 8.32772 9.95162 7.63128 10.5919 6.52235L8.9878 5.59625C8.36672 6.67198 6.99118 7.04056 5.91545 6.41948L4.98908 8.02399C6.06482 8.64507 5.90403 10.0206 5.28296 11.0963L6.88702 12.0224Z" fill="white" fill-opacity="0.8"/>
<path d="M11.0125 14.4037C11.6142 13.3615 12.9237 12.9831 13.983 13.5252L14.0848 13.5804L15.0109 11.9764C13.9352 11.3553 14.096 9.97977 14.717 8.90403L13.113 7.97792C12.4729 9.08664 11.8796 10.37 12.2995 11.4809C11.1277 11.6729 10.0484 12.369 9.4084 13.4776L11.0125 14.4037Z" fill="white" fill-opacity="0.8"/>
</svg>
