<svg width="282" height="376" viewBox="0 0 282 376" fill="none" xmlns="http://www.w3.org/2000/svg">
<mask id="mask0_263_3547" style="mask-type:alpha" maskUnits="userSpaceOnUse" x="0" y="0" width="282" height="376">
<rect width="282" height="376" rx="8" fill="white"/>
</mask>
<g mask="url(#mask0_263_3547)">
<path d="M256.511 188.934C260.126 188.934 263.495 192.672 262.92 196L247.758 261.612C247.183 264.201 244.882 266.009 242.253 266.009V265.927H142.54C138.925 265.927 136.254 262.599 137.035 259.065L152.482 191.974C152.811 190.125 154.373 188.893 156.386 188.893L256.511 188.934Z" stroke="#FA6000" stroke-width="2.39994"/>
<path d="M243.727 -86.959C247.343 -86.959 250.713 -83.2204 250.138 -79.8926L219.241 51.0869C218.625 54.4558 222.035 58.1531 225.65 58.1533H281.526C285.142 58.1533 288.511 61.8509 287.936 65.1787L263.038 165.591C262.75 167.481 261.189 168.673 259.135 168.673L158.97 168.632C155.354 168.632 151.985 164.933 152.561 161.605L176.76 65.3027C177.335 61.9749 173.966 58.2776 170.351 58.2773H114.475C110.859 58.2773 107.489 54.5379 108.064 51.21L139.701 -83.9189C140.03 -85.7675 141.592 -86.9999 143.604 -87L243.727 -86.959Z" stroke="#FA6000" stroke-width="2.39994"/>
</g>
</svg>
